<svg width="24" height="24" viewBox="0 0 24 24" fill="none" xmlns="http://www.w3.org/2000/svg">
<path d="M14.9 20.9998C14.3933 20.9998 13.9087 20.8951 13.446 20.6858C12.9833 20.4758 12.5797 20.1715 12.235 19.7728L7.346 14.0728C7.20133 13.8908 7.135 13.6881 7.147 13.4648C7.15967 13.2408 7.263 13.0565 7.457 12.9118L7.581 12.8168C7.85167 12.6121 8.15633 12.5031 8.495 12.4898C8.83367 12.4765 9.14633 12.5668 9.433 12.7608L11.5 14.0798V3.99981C11.5 3.85781 11.548 3.73914 11.644 3.64381C11.74 3.54848 11.859 3.50048 12.001 3.49981C12.143 3.49914 12.2617 3.54714 12.357 3.64381C12.4523 3.74048 12.5 3.85914 12.5 3.99981V14.4418C12.5 14.7685 12.36 15.0065 12.08 15.1558C11.8013 15.3058 11.5273 15.2918 11.258 15.1138L9.242 13.8288C9.13933 13.7648 9.024 13.7328 8.896 13.7328C8.768 13.7328 8.65267 13.7711 8.55 13.8478L8.492 13.8868L13.092 19.2658C13.3333 19.5491 13.575 19.7425 13.817 19.8458C14.059 19.9491 14.3833 20.0005 14.79 19.9998H18.5C19.1933 19.9998 19.7867 19.7551 20.28 19.2658C20.7733 18.7758 21.02 18.1871 21.02 17.4998V10.6158C21.02 10.4738 21.0677 10.3548 21.163 10.2588C21.259 10.1635 21.378 10.1158 21.52 10.1158C21.662 10.1158 21.7807 10.1635 21.876 10.2588C21.9713 10.3541 22.019 10.4731 22.019 10.6158V17.4998C22.019 18.4718 21.6747 19.2981 20.986 19.9788C20.2967 20.6595 19.468 20.9998 18.5 20.9998H14.9ZM15.174 6.92281C15.316 6.92281 15.4347 6.97081 15.53 7.06681C15.6253 7.16281 15.673 7.28148 15.673 7.42281V11.9998C15.673 12.1418 15.625 12.2605 15.529 12.3558C15.433 12.4518 15.3143 12.4998 15.173 12.4998C15.031 12.4998 14.912 12.4518 14.816 12.3558C14.72 12.2598 14.6723 12.1411 14.673 11.9998V7.42281C14.673 7.28148 14.721 7.16281 14.817 7.06681C14.913 6.97081 15.032 6.92281 15.174 6.92281ZM18.347 8.11581C18.4883 8.11581 18.607 8.16347 18.703 8.25881C18.7983 8.35481 18.846 8.47381 18.846 8.61581V11.9998C18.846 12.1418 18.798 12.2605 18.702 12.3558C18.606 12.4511 18.487 12.4991 18.345 12.4998C18.203 12.5005 18.0847 12.4525 17.99 12.3558C17.8953 12.2591 17.8473 12.1405 17.846 11.9998V8.61581C17.846 8.47381 17.894 8.35481 17.99 8.25881C18.086 8.16347 18.205 8.11581 18.347 8.11581ZM4.508 9.49981C3.66 9.49981 2.94667 9.21347 2.368 8.64081C1.78933 8.06881 1.5 7.37181 1.5 6.54981C1.5 6.04714 1.59667 5.61948 1.79 5.26681C1.98267 4.91481 2.48267 4.28281 3.29 3.37081L3.885 2.69581C4.04633 2.50114 4.24833 2.40381 4.491 2.40381C4.733 2.40381 4.93467 2.50114 5.096 2.69581L5.69 3.37681C6.502 4.30881 7.00667 4.94614 7.204 5.28881C7.40133 5.63081 7.5 6.05114 7.5 6.54981C7.5 7.36248 7.20967 8.05714 6.629 8.63381C6.04833 9.21114 5.34133 9.49981 4.508 9.49981ZM4.5 8.49981C5.05533 8.49981 5.52767 8.30947 5.917 7.92881C6.30567 7.54747 6.5 7.08781 6.5 6.54981C6.5 6.22781 6.41633 5.92881 6.249 5.65281C6.08167 5.37681 5.64933 4.83748 4.952 4.03481L4.481 3.52481L4.048 4.03481C3.38667 4.78814 2.96333 5.31481 2.778 5.61481C2.59267 5.91481 2.5 6.22414 2.5 6.54281C2.5 7.08881 2.693 7.55148 3.079 7.93081C3.465 8.31014 3.93867 8.49981 4.5 8.49981Z" fill="#2C3E50"/>
</svg>
