<svg width="24" height="24" viewBox="0 0 24 24" fill="none" xmlns="http://www.w3.org/2000/svg">
<path d="M18.5 16.1471C18.5 17.9373 17.7888 19.6542 16.523 20.9201C15.2571 22.186 13.5402 22.8971 11.75 22.8971C9.95979 22.8971 8.2429 22.186 6.97703 20.9201C5.71116 19.6542 5 17.9373 5 16.1471C5 11.2771 9.448 3.93513 11.122 1.34713C11.1893 1.24162 11.2822 1.15478 11.3919 1.09462C11.5017 1.03446 11.6248 1.00293 11.75 1.00293C11.8752 1.00293 11.9983 1.03446 12.1081 1.09462C12.2178 1.15478 12.3107 1.24162 12.378 1.34713C14.052 3.93513 18.5 11.2771 18.5 16.1471Z" stroke="#2C3E50" stroke-width="1.5" stroke-linecap="round" stroke-linejoin="round"/>
<path d="M11.75 19.9C11.2573 19.9 10.7694 19.8029 10.3142 19.6142C9.85908 19.4256 9.44555 19.1491 9.09729 18.8006C8.74903 18.452 8.47287 18.0383 8.28459 17.583C8.09631 17.1276 7.99961 16.6397 8 16.147" stroke="#2C3E50" stroke-width="1.5" stroke-linecap="round" stroke-linejoin="round"/>
</svg>
