<svg width="24" height="24" viewBox="0 0 24 24" fill="none" xmlns="http://www.w3.org/2000/svg">
<path d="M12 21.154C11.54 21.154 11.1397 20.9997 10.799 20.691C10.4583 20.3823 10.256 19.9983 10.192 19.539H13.808C13.744 19.999 13.5417 20.383 13.201 20.691C12.8603 20.999 12.46 21.1533 12 21.154ZM8.5 17.769V16.769H15.5V17.769H8.5ZM8.558 15C7.61333 14.3807 6.86733 13.5953 6.32 12.644C5.77267 11.6927 5.49933 10.6447 5.5 9.5C5.5 7.686 6.13 6.14933 7.39 4.89C8.65 3.63067 10.1867 3.00067 12 3C13.8133 2.99933 15.35 3.62933 16.61 4.89C17.87 6.15067 18.5 7.68733 18.5 9.5C18.5 10.6447 18.2267 11.6927 17.68 12.644C17.1333 13.5953 16.3873 14.3807 15.442 15H8.558ZM8.85 14H15.15C15.9 13.4667 16.4793 12.8083 16.888 12.025C17.2967 11.2417 17.5007 10.4 17.5 9.5C17.5 7.96667 16.9667 6.66667 15.9 5.6C14.8333 4.53333 13.5333 4 12 4C10.4667 4 9.16667 4.53333 8.1 5.6C7.03333 6.66667 6.5 7.96667 6.5 9.5C6.5 10.4 6.70433 11.2417 7.113 12.025C7.52167 12.8083 8.10067 13.4667 8.85 14Z" fill="#2C3E50"/>
</svg>
