<svg width="24" height="24" viewBox="0 0 24 24" fill="none" xmlns="http://www.w3.org/2000/svg">
<path fill-rule="evenodd" clip-rule="evenodd" d="M15.682 3.2821C16.036 2.92829 16.5099 2.7201 17.0099 2.69862C17.51 2.67714 17.9999 2.84395 18.383 3.1661L18.511 3.2821L19.218 3.9901C19.5715 4.34409 19.7795 4.81772 19.801 5.31754C19.8225 5.81737 19.6559 6.30709 19.334 6.6901L19.218 6.8181L18.511 7.5251C18.4497 7.58591 18.3846 7.6427 18.316 7.6951C18.4035 8.00879 18.413 8.33909 18.3439 8.65732C18.2747 8.97554 18.1288 9.27206 17.919 9.5211L17.803 9.6461L16.813 10.6361C17.5008 11.2461 18.0513 11.995 18.4283 12.8335C18.8053 13.6719 19.0001 14.5808 19 15.5001C19 17.1441 18.39 18.6451 17.384 19.7901L17.19 20.0001H20C20.2549 20.0004 20.5 20.098 20.6854 20.2729C20.8707 20.4479 20.9822 20.6871 20.9972 20.9415C21.0121 21.1959 20.9293 21.4465 20.7657 21.6419C20.6021 21.8374 20.3701 21.963 20.117 21.9931L20 22.0001H3.99999C3.74511 21.9998 3.49996 21.9022 3.31462 21.7273C3.12929 21.5523 3.01776 21.3131 3.00282 21.0587C2.98788 20.8043 3.07067 20.5537 3.23426 20.3583C3.39785 20.1628 3.62989 20.0372 3.88299 20.0071L3.99999 20.0001H12.5C13.4028 20.0002 14.2848 19.7288 15.0313 19.221C15.7778 18.7133 16.3543 17.9928 16.686 17.1531C17.0176 16.3134 17.089 15.3934 16.8908 14.5126C16.6927 13.6318 16.2342 12.8309 15.575 12.2141L15.395 12.0541L12.147 15.3041C11.7929 15.6582 11.3189 15.8666 10.8186 15.888C10.3183 15.9095 9.82812 15.7425 9.44499 15.4201L9.31799 15.3031L7.19699 13.1821C6.84304 12.8282 6.63466 12.3544 6.613 11.8544C6.59134 11.3543 6.75797 10.8643 7.07999 10.4811L7.19699 10.3541L12.854 4.6971C13.1045 4.44654 13.417 4.26701 13.7596 4.17688C14.1022 4.08674 14.4626 4.08923 14.804 4.1841L14.886 4.0841L14.975 3.9901L15.682 3.2821ZM6.48999 13.8901L8.60999 16.0101C8.7029 16.1029 8.77661 16.2132 8.82692 16.3345C8.87723 16.4558 8.90315 16.5859 8.90319 16.7172C8.90324 16.8486 8.87741 16.9787 8.82719 17.1C8.77697 17.2214 8.70334 17.3317 8.61049 17.4246C8.51765 17.5175 8.40741 17.5912 8.28608 17.6415C8.16475 17.6918 8.03469 17.7178 7.90334 17.7178C7.772 17.7178 7.64192 17.692 7.52056 17.6418C7.39919 17.5916 7.2889 17.5179 7.19599 17.4251L5.07399 15.3031C4.88662 15.1153 4.78151 14.8608 4.78179 14.5955C4.78207 14.3303 4.88772 14.076 5.07549 13.8886C5.26326 13.7012 5.51778 13.5961 5.78305 13.5964C6.04832 13.5967 6.30262 13.7023 6.48999 13.8901ZM14.268 6.1121L8.60999 11.7681L10.731 13.8891L16.388 8.2321L14.267 6.1111L14.268 6.1121ZM17.096 4.6981L16.389 5.4051L17.096 6.1121L17.803 5.4051L17.096 4.6981Z" fill="#2C3E50"/>
</svg>
