<svg width="16" height="16" viewBox="0 0 16 16" fill="none" xmlns="http://www.w3.org/2000/svg">
<g clip-path="url(#clip0_45_14)">
<path d="M14 2H13.1881C13.7012 2.88375 14 3.90656 14 5C14 8.30844 11.3084 11 8 11C4.69156 11 2 8.30844 2 5C2 3.90656 2.29875 2.88375 2.81188 2H2C0.897187 2 0 2.89719 0 4V14C0 15.1028 0.897187 16 2 16H14C15.1028 16 16 15.1028 16 14V4C16 2.89719 15.1028 2 14 2ZM8 10C10.7616 10 13 7.76156 13 5C13 2.23844 10.7616 0 8 0C5.23844 0 3 2.23844 3 5C3 7.76156 5.23844 10 8 10ZM7.99062 5.25187L9.04 2.80312C9.14937 2.54781 9.44437 2.43063 9.69719 2.54031C9.95094 2.64906 10.0684 2.94313 9.96 3.19656L8.90781 5.65125C9.11656 5.875 9.25 6.17031 9.25 6.5C9.25 7.19031 8.69031 7.75 8 7.75C7.30969 7.75 6.75 7.19031 6.75 6.5C6.75 5.81313 7.305 5.25719 7.99062 5.25187Z" fill="#2C3E50"/>
</g>
<defs>
<clipPath id="clip0_45_14">
<rect width="16" height="16" fill="white"/>
</clipPath>
</defs>
</svg>
