<svg width="24" height="24" viewBox="0 0 24 24" fill="none" xmlns="http://www.w3.org/2000/svg">
<path d="M4 9.5175C4 8.1925 4.4425 6.923 5.1725 5.994C5.9 5.068 6.8935 4.5 8.015 4.5C9.5665 4.5 10.77 5.51 11.5505 7.101L12 8.015L12.449 7.101C13.2295 5.51 14.433 4.5 15.984 4.5C17.1065 4.5 18.1 5.068 18.828 5.994C19.558 6.923 20 8.1925 20 9.5175C19.9997 9.7145 19.9903 9.91017 19.972 10.1045C20.2982 10.3588 20.5936 10.6505 20.852 10.9735C20.948 10.501 21 10.0155 21 9.5175C21 7.98 20.4895 6.4905 19.614 5.3765C18.7365 4.259 17.472 3.5 15.984 3.5C14.233 3.5 12.901 4.4815 12 5.867C11.1 4.482 9.7675 3.5 8.0155 3.5C6.528 3.5 5.264 4.259 4.386 5.376C3.511 6.49 3 7.98 3 9.5175C3 12.9375 5.2675 15.6855 7.425 17.5345C8.65093 18.577 9.98289 19.488 11.399 20.2525C11.5165 20.3155 11.6348 20.3769 11.754 20.4365L11.775 20.4465L11.7805 20.449L11.783 20.4505L12.007 20.558L12.229 20.4445L12.2305 20.4435L12.236 20.441L12.256 20.43L12.332 20.39C12.397 20.355 12.4915 20.304 12.611 20.2365C12.8495 20.1015 13.189 19.9035 13.5955 19.6465C13.9165 19.4434 14.2329 19.2332 14.5445 19.016C14.2107 18.861 13.8941 18.6713 13.6 18.45C13.41 18.577 13.2305 18.6938 13.0615 18.8005C12.7117 19.0222 12.3557 19.2339 11.994 19.4355L11.871 19.3705C10.5185 18.641 9.24645 17.7713 8.076 16.7755C5.9825 14.9805 4 12.4875 4 9.5175Z" fill="#2C3E50"/>
<path d="M16.9999 15.5002C17.1457 15.5 17.2896 15.468 17.4217 15.4064C17.5538 15.3448 17.6708 15.255 17.7646 15.1434C17.8584 15.0318 17.9266 14.9011 17.9645 14.7603C18.0024 14.6196 18.0091 14.4723 17.9841 14.3287C17.9591 14.1851 17.903 14.0487 17.8198 13.929C17.7365 13.8094 17.6281 13.7094 17.5022 13.636C17.3762 13.5627 17.2357 13.5178 17.0906 13.5044C16.9455 13.491 16.7992 13.5096 16.6619 13.5587L15.5124 12.4092L14.8054 13.1162L16.0154 14.3262C16.0051 14.3828 15.9999 14.4408 15.9999 14.5002C15.9999 14.7654 16.1053 15.0197 16.2928 15.2073C16.4803 15.3948 16.7347 15.5002 16.9999 15.5002Z" fill="#2C3E50"/>
<path fill-rule="evenodd" clip-rule="evenodd" d="M16.75 18.5C17.3081 18.5 17.8608 18.3901 18.3764 18.1765C18.892 17.9629 19.3606 17.6499 19.7552 17.2552C20.1499 16.8606 20.4629 16.392 20.6765 15.8764C20.8901 15.3608 21 14.8081 21 14.25C21 13.6919 20.8901 13.1392 20.6765 12.6236C20.4629 12.108 20.1499 11.6394 19.7552 11.2448C19.3606 10.8501 18.892 10.5371 18.3764 10.3235C17.8608 10.1099 17.3081 10 16.75 10C15.6228 10 14.5418 10.4478 13.7448 11.2448C12.9478 12.0418 12.5 13.1228 12.5 14.25C12.5 15.3772 12.9478 16.4582 13.7448 17.2552C14.5418 18.0522 15.6228 18.5 16.75 18.5ZM16.75 17.5C17.612 17.5 18.4386 17.1576 19.0481 16.5481C19.6576 15.9386 20 15.112 20 14.25C20 13.388 19.6576 12.5614 19.0481 11.9519C18.4386 11.3424 17.612 11 16.75 11C15.888 11 15.0614 11.3424 14.4519 11.9519C13.8424 12.5614 13.5 13.388 13.5 14.25C13.5 15.112 13.8424 15.9386 14.4519 16.5481C15.0614 17.1576 15.888 17.5 16.75 17.5Z" fill="#2C3E50"/>
</svg>
