<svg width="24" height="24" viewBox="0 0 24 24" fill="none" xmlns="http://www.w3.org/2000/svg">
<path d="M13.464 21C11.9347 21 10.632 20.466 9.55602 19.398C8.48002 18.33 7.94202 17.0307 7.94202 15.5V14.983C6.67535 14.865 5.60868 14.3317 4.74202 13.383C3.87535 12.4357 3.44202 11.308 3.44202 10V4.5H6.44202V3.5H7.44202V6.5H6.44202V5.5H4.44202V10C4.44202 11.1 4.83368 12.0417 5.61702 12.825C6.40035 13.6083 7.34202 14 8.44202 14C9.54202 14 10.4837 13.6083 11.267 12.825C12.0504 12.0417 12.442 11.1 12.442 10V5.5H10.442V6.5H9.44202V3.5H10.442V4.5H13.442V10C13.442 11.308 13.0087 12.436 12.142 13.384C11.2754 14.332 10.2087 14.865 8.94202 14.983V15.5C8.94202 16.75 9.38135 17.8127 10.26 18.688C11.14 19.5627 12.2077 20 13.463 20C14.713 20 15.7754 19.5627 16.65 18.688C17.5247 17.8133 17.9623 16.7507 17.963 15.5V13.94C17.495 13.83 17.1087 13.584 16.804 13.202C16.4994 12.82 16.347 12.3807 16.347 11.884C16.347 11.2973 16.553 10.798 16.965 10.386C17.377 9.97467 17.877 9.769 18.465 9.769C19.053 9.769 19.5523 9.97467 19.963 10.386C20.3737 10.7973 20.5787 11.297 20.578 11.885C20.578 12.381 20.4257 12.82 20.121 13.202C19.817 13.584 19.431 13.8303 18.963 13.941V15.5C18.963 17.0307 18.429 18.33 17.361 19.398C16.293 20.466 14.994 21 13.464 21Z" fill="#2C3E50"/>
</svg>
